<?xml version="1.0" encoding="utf-8"?>
<!-- Generator: Adobe Illustrator 22.0.1, SVG Export Plug-In . SVG Version: 6.00 Build 0)  -->
<svg version="1.1" id="Layer_1" xmlns="http://www.w3.org/2000/svg" xmlns:xlink="http://www.w3.org/1999/xlink" x="0px" y="0px"
	 width="26px" height="90px" viewBox="0 0 26 90" style="enable-background:new 0 0 26 90;" xml:space="preserve">
<style type="text/css">
	.st0{fill:#FFFFFF;}
	.st1{fill:#00A2ED;}
</style>
<path class="st0" d="M25.1,10.5l-8-1.8l-4.1-7.3L8.8,8.7l-8,1.8l5.4,6.4l-0.7,8.2l7.5-3.3l7.5,3.3l-0.7-8.4L25.1,10.5z"/>
<path class="st0" d="M25.1,40.3l-8-1.8l-4.1-7.3l-4.1,7.3l-8,1.8l5.4,6.4l-0.7,8.2l7.5-3.3l7.5,3.3l-0.7-8.4L25.1,40.3z"/>
<path class="st1" d="M26,10l-8.6-2L13,0L8.6,8L0,10l5.8,7L5,26l8-3.6l8,3.6l-0.8-9.2L26,10z M13,20.8l-6.6,3l0.8-7.4l-4.8-5.6l7-1.6
	L13,2.6l3.6,6.6l7,1.6l-4.8,5.6l0.8,7.6L13,20.8z"/>
<path class="st1" d="M26,40l-8.6-2L13,30l-4.4,8L0,40l5.8,7L5,56l8-3.6l8,3.6l-0.8-9.2L26,40z M13,49.2l-5,2.4L8.6,46L5,41.8
	l5.2-1.2l2.8-4.8l2.8,4.8l5.4,1.2L17.4,46l0.6,5.6L13,49.2z"/>
<path class="st1" d="M26,70l-8.6-2L13,60l-4.4,8L0,70l5.8,7L5,86l8-3.6l8,3.6l-0.8-9.2L26,70z"/>
</svg>
